<?xml version="1.0" standalone="no"?>
<!DOCTYPE svg PUBLIC "-//W3C//DTD SVG 20010904//EN"
 "http://www.w3.org/TR/2001/REC-SVG-20010904/DTD/svg10.dtd">
<svg version="1.0" xmlns="http://www.w3.org/2000/svg"
 width="219.000000pt" height="219.000000pt" viewBox="0 0 219.000000 219.000000"
 preserveAspectRatio="xMidYMid meet">
<metadata>
Created by potrace 1.14, written by Peter Selinger 2001-2017
</metadata>
<g transform="translate(0.000000,219.000000) scale(0.100000,-0.100000)"
fill="#000000" stroke="none">
<path d="M1610 1443 c-51 -15 -88 -38 -110 -70 -21 -31 -26 -50 -28 -122 -3
-75 0 -92 21 -131 32 -61 76 -85 153 -85 51 0 66 4 97 28 40 30 53 50 58 86 3
20 -1 24 -26 27 -38 4 -65 -4 -65 -20 0 -23 -36 -46 -73 -46 -49 0 -69 31 -71
113 -4 110 19 149 84 144 29 -2 38 -8 50 -34 14 -30 19 -33 63 -33 45 0 48 1
42 23 -13 42 -41 81 -70 98 -31 18 -98 30 -125 22z"/>
<path d="M1957 1435 c-80 -28 -119 -90 -119 -193 0 -38 6 -82 14 -102 40 -95
140 -133 234 -91 72 33 107 106 100 208 -8 110 -60 174 -151 186 -22 3 -57 -1
-78 -8z m93 -75 c24 -13 40 -62 40 -127 0 -93 -42 -142 -103 -121 -65 23 -78
176 -20 240 18 20 54 23 83 8z"/>
<path d="M9 1439 c-1 -2 -3 -93 -4 -202 l-1 -199 101 4 c89 3 106 6 138 28 52
35 77 91 77 171 0 76 -20 119 -74 163 -35 28 -44 31 -137 34 -54 3 -100 3
-100 1z m182 -97 c28 -25 32 -35 34 -88 4 -100 -25 -144 -92 -144 l-33 0 0
130 0 130 30 0 c18 0 42 -11 61 -28z"/>
<path d="M415 1253 c-38 -103 -71 -193 -73 -200 -3 -9 11 -13 47 -13 50 0 50
0 62 40 l12 40 67 0 67 0 12 -40 c12 -40 12 -40 62 -40 43 0 50 2 45 18 -3 9
-37 98 -74 197 l-68 180 -44 3 -45 3 -70 -188z m134 6 c7 -23 15 -47 18 -55 4
-11 -5 -14 -37 -14 -32 0 -41 3 -37 14 3 8 11 32 18 55 7 23 15 41 19 41 4 0
12 -18 19 -41z"/>
<path d="M749 1438 c-1 -2 -2 -92 -3 -200 l-2 -198 48 0 47 0 3 116 3 116 70
-116 70 -116 48 0 47 0 0 200 0 200 -45 0 c-51 0 -47 16 -47 -154 0 -60 -3
-85 -9 -75 -5 8 -39 62 -75 122 l-65 107 -45 0 c-24 0 -45 -1 -45 -2z"/>
<path d="M1125 1428 c-3 -7 -3 -22 -1 -33 3 -18 13 -21 98 -25 l96 -5 -97
-138 c-58 -83 -97 -148 -97 -163 l0 -24 158 0 158 0 0 35 0 35 -95 0 c-52 0
-95 3 -95 6 0 3 43 67 95 141 54 78 95 146 95 160 l0 23 -155 0 c-116 0 -157
-3 -160 -12z"/>
<path d="M21 920 c-3 -29 -3 -116 0 -145 1 -11 5 0 8 25 6 41 8 45 34 44 58
-3 58 -3 52 -34 -3 -16 -1 -30 4 -30 5 0 10 36 10 80 0 44 -3 78 -8 76 -4 -3
-7 -21 -6 -40 2 -36 2 -36 -41 -36 l-43 0 -4 43 c-2 24 -5 31 -6 17z"/>
<path d="M207 933 c-3 -5 -14 -37 -25 -73 -11 -36 -23 -73 -27 -82 -4 -10 -3
-18 3 -18 5 0 13 11 16 25 5 20 12 25 40 25 28 0 35 -4 40 -26 4 -15 10 -24
13 -21 6 6 -44 177 -52 177 -2 0 -6 -3 -8 -7z m27 -89 c4 -20 1 -24 -20 -24
-27 0 -29 12 -12 60 11 32 12 33 20 11 4 -12 10 -33 12 -47z"/>
<path d="M299 938 c-6 -12 -3 -178 3 -178 4 0 8 16 8 35 0 32 8 40 33 36 19
-3 45 20 50 45 6 34 -23 64 -63 64 -16 0 -31 -1 -31 -2z m65 -21 c11 -8 17
-23 14 -38 -2 -19 -10 -25 -35 -27 -32 -3 -33 -2 -33 32 0 30 8 42 31 45 3 1
13 -5 23 -12z"/>
<path d="M429 938 c-1 -2 -2 -42 -3 -90 l-2 -88 31 0 c36 0 48 7 64 37 25 48
6 127 -33 137 -22 6 -55 8 -57 4z m66 -32 c41 -41 24 -122 -28 -132 -30 -5
-30 -3 -27 91 3 74 14 82 55 41z"/>
<path d="M553 925 c9 -31 30 -139 30 -152 0 -7 4 -13 8 -13 7 0 39 97 39 120
0 30 19 -6 31 -60 7 -33 16 -60 19 -60 9 0 48 170 40 175 -3 2 -12 -25 -19
-60 -7 -36 -16 -65 -20 -65 -4 0 -13 27 -20 60 -8 33 -18 63 -24 67 -6 4 -8
-2 -5 -15 4 -12 3 -20 -1 -18 -4 3 -13 -23 -21 -57 l-14 -62 -15 72 c-9 39
-20 75 -25 80 -5 4 -6 -1 -3 -12z"/>
<path d="M766 924 c-21 -20 -29 -55 -23 -98 6 -47 23 -66 58 -66 40 0 64 47
55 109 -9 65 -53 92 -90 55z m58 -10 c16 -16 19 -24 19 -69 0 -49 -3 -56 -28
-67 -21 -9 -29 -9 -41 3 -31 31 -25 118 10 141 16 11 23 10 40 -8z"/>
<path d="M913 932 c-32 -20 -40 -125 -12 -158 19 -23 71 -14 87 16 17 33 8
121 -15 138 -19 14 -42 15 -60 4z m51 -18 c9 -8 16 -23 17 -32 0 -9 2 -25 4
-36 9 -49 -41 -94 -71 -64 -28 28 -22 120 9 140 17 11 24 10 41 -8z"/>
<path d="M1029 913 c-4 -155 -5 -148 27 -151 39 -4 63 16 73 58 15 68 -16 119
-71 120 -24 0 -28 -4 -29 -27z m79 -12 c15 -18 11 -96 -6 -113 -6 -6 -22 -12
-36 -13 -26 -3 -26 -3 -26 69 0 40 3 76 7 79 10 10 46 -3 61 -22z"/>
<path d="M1219 938 c-6 -14 -3 -178 3 -178 4 0 8 20 8 45 0 42 2 45 23 41 13
-2 30 0 38 5 10 6 2 9 -23 9 -37 0 -38 1 -38 35 0 33 2 35 28 30 15 -2 34 0
42 5 11 7 1 10 -32 10 -27 0 -48 -1 -49 -2z"/>
<path d="M1330 852 l0 -92 47 0 c52 0 54 9 2 13 l-34 3 0 76 c0 42 -4 80 -8
84 -4 4 -7 -34 -7 -84z"/>
<path d="M1456 921 c-23 -25 -27 -89 -10 -130 10 -25 19 -31 43 -31 39 0 61
32 61 90 0 78 -52 117 -94 71z m64 -6 c19 -23 21 -96 4 -122 -31 -48 -74 -16
-74 54 0 67 39 105 70 68z"/>
<path d="M1597 922 c-31 -34 -27 -133 6 -154 45 -29 87 11 87 82 0 25 -7 56
-16 68 -18 27 -55 29 -77 4z m70 -22 c14 -28 10 -95 -8 -116 -30 -36 -69 -1
-69 63 0 76 49 109 77 53z"/>
<path d="M1722 850 c1 -49 5 -90 10 -90 5 0 9 10 8 23 -6 66 22 74 55 14 26
-49 41 -48 16 1 -19 36 -19 38 -1 60 32 39 2 82 -56 82 l-32 0 0 -90z m70 71
c11 -2 19 -37 12 -55 -4 -10 -17 -16 -35 -16 -27 0 -29 3 -29 38 0 40 -1 39
52 33z"/>
<path d="M1859 913 c-4 -122 -3 -153 4 -153 4 0 7 41 7 90 0 50 -2 90 -5 90
-3 0 -5 -12 -6 -27z"/>
<path d="M1910 850 c0 -52 4 -89 8 -83 5 7 7 41 5 75 -3 70 -2 69 53 -29 16
-29 32 -53 37 -53 10 0 9 168 -1 174 -5 3 -8 -26 -7 -64 1 -39 -2 -67 -7 -64
-4 3 -19 26 -32 52 -51 99 -55 98 -56 -8z"/>
<path d="M2078 930 c-21 -13 -31 -60 -23 -110 5 -30 14 -44 33 -54 48 -24 89
9 72 58 -7 21 -36 30 -46 15 -3 -5 4 -9 16 -9 17 0 21 -5 18 -27 -3 -32 -32
-42 -61 -20 -27 19 -29 113 -3 133 26 19 32 18 56 -8 11 -12 22 -19 26 -16 9
10 -34 48 -53 48 -10 0 -26 -5 -35 -10z"/>
<path d="M360 827 c0 -15 24 -67 30 -67 11 0 -8 58 -21 66 -5 3 -9 3 -9 1z"/>
</g>
</svg>
